<svg width="415" height="415" viewBox="0 0 415 415" fill="none" xmlns="http://www.w3.org/2000/svg">
<path d="M415 207.5C415 152.468 393.138 99.6891 354.225 60.7753C315.311 21.8616 262.532 4.15483e-06 207.5 0C152.468 -4.15483e-06 99.6892 21.8615 60.7754 60.7753C21.8616 99.6891 8.30967e-06 152.468 0 207.5L207.5 207.5H415Z" fill="#5164CF"/>
<path d="M415 207.5C415 262.532 393.138 315.311 354.225 354.225C315.311 393.138 262.532 415 207.5 415C152.468 415 99.6892 393.138 60.7754 354.225C21.8616 315.311 8.30967e-06 262.532 0 207.5L207.5 207.5H415Z" fill="#5164CF"/>
<path d="M35.9815 221V194.818H54.2372V199.957H42.3097V205.327H53.304V210.479H42.3097V215.861H54.2372V221H35.9815ZM64.6051 194.818L69.3864 203.089H69.5909L74.4233 194.818H81.5057L73.6051 207.909L81.7614 221H74.5L69.5909 212.639H69.3864L64.4773 221H57.267L65.3849 207.909L57.4716 194.818H64.6051ZM84.7784 221V194.818H95.5938C97.554 194.818 99.2457 195.202 100.669 195.969C102.101 196.727 103.205 197.788 103.98 199.152C104.756 200.507 105.143 202.084 105.143 203.882C105.143 205.689 104.747 207.27 103.955 208.625C103.17 209.972 102.05 211.016 100.592 211.757C99.1349 212.499 97.4048 212.869 95.402 212.869H88.7287V207.884H94.2259C95.1804 207.884 95.9773 207.717 96.6165 207.385C97.2642 207.053 97.7543 206.588 98.0866 205.991C98.419 205.386 98.5852 204.683 98.5852 203.882C98.5852 203.072 98.419 202.374 98.0866 201.786C97.7543 201.189 97.2642 200.729 96.6165 200.405C95.9688 200.081 95.1719 199.919 94.2259 199.919H91.1065V221H84.7784ZM108.263 221V194.818H126.518V199.957H114.591V205.327H125.585V210.479H114.591V215.861H126.518V221H108.263ZM152.764 194.818V221H147.395L136.976 205.889H136.81V221H130.482V194.818H135.928L146.232 209.903H146.449V194.818H152.764ZM170.895 202.668C170.81 201.73 170.431 201.001 169.757 200.482C169.093 199.953 168.142 199.689 166.907 199.689C166.088 199.689 165.407 199.795 164.861 200.009C164.316 200.222 163.907 200.516 163.634 200.891C163.361 201.257 163.221 201.679 163.212 202.156C163.195 202.548 163.272 202.893 163.442 203.192C163.621 203.49 163.877 203.754 164.209 203.984C164.55 204.206 164.959 204.402 165.436 204.572C165.914 204.743 166.451 204.892 167.047 205.02L169.297 205.531C170.593 205.812 171.735 206.188 172.723 206.656C173.721 207.125 174.556 207.683 175.229 208.331C175.911 208.979 176.426 209.724 176.776 210.568C177.125 211.412 177.304 212.358 177.313 213.406C177.304 215.06 176.887 216.479 176.06 217.663C175.233 218.848 174.044 219.756 172.493 220.386C170.951 221.017 169.088 221.332 166.907 221.332C164.716 221.332 162.807 221.004 161.179 220.348C159.551 219.692 158.286 218.695 157.382 217.357C156.479 216.018 156.015 214.327 155.989 212.281H162.049C162.1 213.125 162.326 213.828 162.726 214.391C163.127 214.953 163.676 215.379 164.375 215.669C165.083 215.959 165.901 216.104 166.83 216.104C167.682 216.104 168.407 215.989 169.003 215.759C169.608 215.528 170.073 215.209 170.397 214.8C170.721 214.391 170.887 213.922 170.895 213.393C170.887 212.899 170.733 212.477 170.435 212.128C170.137 211.77 169.676 211.463 169.054 211.207C168.441 210.943 167.657 210.7 166.702 210.479L163.966 209.839C161.699 209.32 159.914 208.48 158.61 207.321C157.306 206.153 156.658 204.577 156.667 202.591C156.658 200.972 157.093 199.553 157.971 198.334C158.848 197.115 160.063 196.165 161.614 195.483C163.165 194.801 164.934 194.46 166.919 194.46C168.948 194.46 170.708 194.805 172.199 195.496C173.699 196.178 174.863 197.136 175.689 198.372C176.516 199.608 176.938 201.04 176.955 202.668H170.895ZM180.509 221V194.818H198.765V199.957H186.837V205.327H197.831V210.479H186.837V215.861H198.765V221H180.509ZM209.605 199.957V194.818H231.735V199.957H223.796V221H217.557V199.957H209.605ZM234.825 221V194.818H245.641C247.601 194.818 249.293 195.172 250.716 195.879C252.148 196.578 253.251 197.584 254.027 198.896C254.803 200.2 255.19 201.747 255.19 203.537C255.19 205.352 254.794 206.895 254.001 208.165C253.209 209.426 252.084 210.389 250.626 211.054C249.169 211.71 247.443 212.038 245.449 212.038H238.609V207.053H244.273C245.227 207.053 246.024 206.929 246.663 206.682C247.311 206.426 247.801 206.043 248.134 205.531C248.466 205.011 248.632 204.347 248.632 203.537C248.632 202.727 248.466 202.058 248.134 201.53C247.801 200.993 247.311 200.592 246.663 200.328C246.016 200.055 245.219 199.919 244.273 199.919H241.153V221H234.825ZM249.565 209.034L256.085 221H249.182L242.79 209.034H249.565ZM264.325 221H257.523L266.357 194.818H274.782L283.616 221H276.815L270.665 201.415H270.461L264.325 221ZM263.417 210.696H277.633V215.503H263.417V210.696ZM308.97 204.304H302.578C302.493 203.648 302.318 203.055 302.054 202.527C301.789 201.999 301.44 201.547 301.005 201.172C300.571 200.797 300.055 200.511 299.458 200.315C298.87 200.111 298.218 200.009 297.502 200.009C296.233 200.009 295.137 200.32 294.217 200.942C293.305 201.564 292.602 202.463 292.108 203.639C291.622 204.815 291.379 206.239 291.379 207.909C291.379 209.648 291.626 211.105 292.12 212.281C292.623 213.449 293.326 214.331 294.23 214.928C295.142 215.516 296.22 215.81 297.464 215.81C298.163 215.81 298.798 215.72 299.369 215.541C299.949 215.362 300.456 215.102 300.89 214.761C301.333 214.412 301.696 213.99 301.977 213.496C302.267 212.993 302.467 212.426 302.578 211.795L308.97 211.834C308.859 212.993 308.522 214.135 307.96 215.26C307.406 216.385 306.643 217.412 305.672 218.341C304.7 219.261 303.515 219.994 302.118 220.54C300.728 221.085 299.135 221.358 297.336 221.358C294.967 221.358 292.845 220.838 290.97 219.798C289.103 218.75 287.629 217.224 286.547 215.222C285.464 213.219 284.923 210.781 284.923 207.909C284.923 205.028 285.473 202.587 286.572 200.584C287.672 198.581 289.159 197.06 291.034 196.02C292.909 194.98 295.01 194.46 297.336 194.46C298.922 194.46 300.387 194.682 301.734 195.125C303.081 195.56 304.265 196.199 305.288 197.043C306.311 197.878 307.142 198.905 307.781 200.124C308.42 201.342 308.816 202.736 308.97 204.304ZM312.591 221V194.818H318.919V205.889H319.264L327.919 194.818H335.372L326.091 206.503L335.538 221H327.97L321.45 210.709L318.919 213.905V221H312.591ZM337.868 221V194.818H356.124V199.957H344.196V205.327H355.191V210.479H344.196V215.861H356.124V221H337.868ZM360.087 221V194.818H370.902C372.863 194.818 374.554 195.172 375.978 195.879C377.409 196.578 378.513 197.584 379.289 198.896C380.064 200.2 380.452 201.747 380.452 203.537C380.452 205.352 380.056 206.895 379.263 208.165C378.471 209.426 377.346 210.389 375.888 211.054C374.431 211.71 372.705 212.038 370.711 212.038H363.871V207.053H369.534C370.489 207.053 371.286 206.929 371.925 206.682C372.573 206.426 373.063 206.043 373.395 205.531C373.728 205.011 373.894 204.347 373.894 203.537C373.894 202.727 373.728 202.058 373.395 201.53C373.063 200.993 372.573 200.592 371.925 200.328C371.277 200.055 370.48 199.919 369.534 199.919H366.415V221H360.087ZM374.827 209.034L381.347 221H374.444L368.051 209.034H374.827Z" fill="white"/>
</svg>
